<svg xmlns="http://www.w3.org/2000/svg" width="1057.709" height="144.677" viewBox="0 0 1057.709 144.677" fill="none">
  <path d="M 46.073 144.677 C 45.595 144.564 44.332 144.544 43.764 144.502 C 42.518 144.409 41.276 144.268 40.041 144.079 C 33.456 143.113 27.157 140.741 21.57 137.125 C 10.964 130.284 3.548 119.471 0.987 107.112 C -0.254 101.237 0.027 95.359 0.027 89.388 L 0.025 54.344 C 0.024 48.764 -0.19 43.994 0.804 38.452 C 1.921 32.343 4.245 26.518 7.641 21.318 C 14.484 10.853 25.209 3.539 37.45 0.988 C 43.466 -0.265 48.95 0.03 55.043 0.03 L 90.215 0.03 C 95.915 0.03 100.583 -0.213 106.265 0.801 C 112.503 1.951 118.441 4.36 123.718 7.881 C 133.716 14.566 140.783 24.818 143.476 36.54 C 143.837 38.123 144.112 39.724 144.299 41.336 C 144.398 42.267 144.441 43.628 144.639 44.5 L 144.639 48.599 L 19.93 48.595 C 18.135 48.595 16.205 48.56 14.418 48.618 C 14.475 53.268 16.195 57.816 19.537 61.106 C 21.702 63.262 24.496 64.673 27.516 65.135 C 28.75 65.316 30.19 65.264 31.453 65.263 L 123.655 65.262 C 126.35 65.261 129.332 65.186 131.992 65.26 C 132.582 67.328 133.106 69.409 133.698 71.472 C 134.921 75.733 136.272 79.956 137.751 84.135 C 138.795 87.058 139.909 89.955 141.091 92.825 C 141.615 94.089 142.156 95.345 142.714 96.594 C 143.206 97.685 144.179 99.589 144.504 100.699 C 144.602 101.029 144.338 103.053 144.274 103.571 C 143.541 109.464 141.68 115.161 138.794 120.35 C 132.792 131.18 122.772 139.214 110.896 142.716 C 107.979 143.549 105.698 144.022 102.666 144.339 C 101.903 144.424 101.138 144.491 100.371 144.538 C 99.83 144.57 99.052 144.577 98.541 144.677 L 46.073 144.677 Z M 39.559 67.797 C 39.62 72.577 41.254 76.922 44.697 80.301 C 48.454 83.988 51.915 84.424 56.828 84.424 L 115.387 84.421 C 122.09 84.422 128.943 84.495 135.637 84.398 C 134.376 80.681 133.186 76.941 132.07 73.178 C 131.724 71.998 131.39 70.815 131.067 69.629 C 130.921 69.1 130.732 68.264 130.535 67.795 L 39.559 67.797 Z M 71.061 86.958 C 71.361 92.21 72.71 96.255 76.686 99.912 C 81.097 103.97 85.19 103.561 90.633 103.556 L 129.352 103.553 C 133.91 103.553 138.625 103.613 143.172 103.545 L 143.52 103.529 C 143.671 103.276 143.074 102.369 142.91 102.024 C 142.205 100.547 141.519 99.061 140.852 97.567 C 139.246 93.934 138.002 90.572 136.545 86.931 C 133.312 86.898 130.078 86.889 126.845 86.905 L 71.759 86.91 L 71.061 86.958 Z" fill="currentColor" fill-rule="nonzero"></path>
  <path d="M 265.046 120.498 C 254.451 120.498 245.779 119.792 239.029 118.379 C 232.358 116.966 227.139 115.043 223.372 112.61 C 219.683 110.099 217.25 107.156 216.073 103.781 C 214.974 100.328 214.621 96.639 215.014 92.715 L 219.958 52.925 C 220.429 48.922 221.645 45.234 223.607 41.859 C 225.648 38.484 228.826 35.581 233.143 33.148 C 237.459 30.636 243.149 28.674 250.213 27.261 C 257.276 25.849 266.105 25.142 276.7 25.142 C 287.295 25.142 295.968 25.849 302.717 27.261 C 309.467 28.674 314.686 30.636 318.374 33.148 C 322.063 35.581 324.496 38.484 325.673 41.859 C 326.85 45.234 327.203 48.922 326.733 52.925 L 325.791 61.519 L 301.304 61.519 L 302.129 54.573 C 302.442 52.69 302.325 50.845 301.775 49.04 C 301.304 47.157 300.088 45.508 298.126 44.096 C 296.242 42.683 293.456 41.584 289.768 40.8 C 286.079 39.936 281.174 39.505 275.052 39.505 C 268.931 39.505 263.908 39.936 259.984 40.8 C 256.06 41.584 252.96 42.683 250.684 44.096 C 248.408 45.508 246.799 47.157 245.857 49.04 C 244.994 50.845 244.405 52.69 244.091 54.573 L 239.735 91.067 C 239.5 92.951 239.618 94.834 240.089 96.718 C 240.559 98.523 241.737 100.132 243.62 101.545 C 245.582 102.957 248.408 104.095 252.096 104.959 C 255.785 105.743 260.69 106.136 266.812 106.136 C 272.933 106.136 277.956 105.743 281.88 104.959 C 285.804 104.095 288.865 102.957 291.063 101.545 C 293.339 100.132 294.947 98.523 295.889 96.718 C 296.909 94.834 297.537 92.951 297.773 91.067 L 298.479 84.122 L 322.965 84.122 L 321.906 92.715 C 321.435 96.639 320.179 100.328 318.139 103.781 C 316.177 107.156 312.998 110.099 308.603 112.61 C 304.287 115.043 298.597 116.966 291.533 118.379 C 284.47 119.792 275.641 120.498 265.046 120.498 Z" fill="currentColor" fill-rule="nonzero"></path>
  <path d="M 413.773 62.578 L 418.011 26.908 L 442.497 26.908 L 431.196 118.732 L 406.827 118.732 L 412.007 76.587 L 359.385 76.587 L 354.205 118.732 L 329.837 118.732 L 341.138 26.908 L 365.507 26.908 L 361.151 62.578 L 413.773 62.578 Z" fill="currentColor" fill-rule="nonzero"></path>
  <path d="M 549.359 118.732 L 523.46 118.732 L 500.858 48.334 L 459.301 118.732 L 434.462 118.732 L 490.498 26.908 L 516.868 26.908 L 549.359 118.732 Z M 468.484 98.601 L 470.25 84.592 L 520.399 84.592 L 518.634 98.601 L 468.484 98.601 Z" fill="currentColor" fill-rule="nonzero"></path>
  <path d="M 574.649 118.732 L 551.928 118.732 L 563.112 26.908 L 585.244 26.908 L 614.674 89.89 L 659.409 26.908 L 681.423 26.908 L 670.24 118.732 L 647.519 118.732 L 654.935 59.517 L 617.617 113.67 L 605.845 113.67 L 581.712 59.517 L 574.649 118.732 Z" fill="currentColor" fill-rule="nonzero"></path>
  <path d="M 693.286 26.908 L 746.614 26.908 C 755.796 26.908 763.252 27.458 768.981 28.556 C 774.789 29.577 779.302 31.068 782.519 33.03 C 785.737 34.992 787.856 37.425 788.877 40.329 C 789.975 43.154 790.289 46.372 789.818 49.982 L 788.406 61.401 C 787.935 65.011 786.836 68.268 785.109 71.172 C 783.383 74.076 780.675 76.509 776.987 78.471 C 773.298 80.433 768.432 81.963 762.389 83.062 C 756.346 84.082 748.733 84.592 739.551 84.592 L 710.591 84.592 L 706.353 118.732 L 681.984 118.732 L 693.286 26.908 Z M 764.272 59.753 L 765.214 51.748 C 765.371 50.178 765.253 48.765 764.861 47.51 C 764.547 46.176 763.684 45.038 762.271 44.096 C 760.859 43.076 758.74 42.291 755.914 41.741 C 753.167 41.192 749.518 40.917 744.966 40.917 L 716.006 40.917 L 712.357 70.466 L 741.316 70.466 C 745.868 70.466 749.596 70.23 752.5 69.759 C 755.404 69.288 757.68 68.582 759.328 67.64 C 761.055 66.699 762.232 65.561 762.86 64.226 C 763.566 62.892 764.037 61.401 764.272 59.753 Z" fill="currentColor" fill-rule="nonzero"></path>
  <path d="M 790.974 118.732 L 802.276 26.908 L 826.644 26.908 L 815.343 118.732 L 790.974 118.732 Z" fill="currentColor" fill-rule="nonzero"></path>
  <path d="M 891.324 25.142 C 901.919 25.142 910.591 25.849 917.341 27.261 C 924.09 28.674 929.309 30.636 932.998 33.148 C 936.686 35.581 939.119 38.484 940.297 41.859 C 941.474 45.234 941.827 48.922 941.356 52.925 L 936.529 92.715 C 936.059 96.639 934.803 100.328 932.762 103.781 C 930.8 107.156 927.622 110.099 923.227 112.61 C 918.91 115.043 913.22 116.966 906.157 118.379 C 899.094 119.792 890.264 120.498 879.669 120.498 C 869.074 120.498 860.402 119.792 853.653 118.379 C 846.982 116.966 841.763 115.043 837.995 112.61 C 834.307 110.099 831.874 107.156 830.697 103.781 C 829.598 100.328 829.245 96.639 829.637 92.715 L 834.581 52.925 C 835.052 48.922 836.269 45.234 838.231 41.859 C 840.271 38.484 843.45 35.581 847.766 33.148 C 852.083 30.636 857.773 28.674 864.836 27.261 C 871.9 25.849 880.729 25.142 891.324 25.142 Z M 912.396 91.067 L 916.752 54.573 C 917.066 52.69 916.948 50.845 916.399 49.04 C 915.928 47.157 914.711 45.508 912.749 44.096 C 910.866 42.683 908.08 41.584 904.391 40.8 C 900.702 39.936 895.797 39.505 889.676 39.505 C 883.554 39.505 878.531 39.936 874.607 40.8 C 870.683 41.584 867.583 42.683 865.307 44.096 C 863.031 45.508 861.422 47.157 860.48 49.04 C 859.617 50.845 859.029 52.69 858.715 54.573 L 854.359 91.067 C 854.123 92.951 854.241 94.834 854.712 96.718 C 855.183 98.523 856.36 100.132 858.244 101.545 C 860.206 102.957 863.031 104.095 866.72 104.959 C 870.408 105.743 875.314 106.136 881.435 106.136 C 887.557 106.136 892.58 105.743 896.504 104.959 C 900.428 104.095 903.489 102.957 905.686 101.545 C 907.962 100.132 909.571 98.523 910.513 96.718 C 911.533 94.834 912.161 92.951 912.396 91.067 Z" fill="currentColor" fill-rule="nonzero"></path>
  <path d="M 966.003 118.732 L 943.283 118.732 L 954.466 26.908 L 976.245 26.908 L 1027.69 90.008 L 1034.989 26.908 L 1057.709 26.908 L 1046.408 118.732 L 1024.747 118.732 L 973.42 55.868 L 966.003 118.732 Z" fill="currentColor" fill-rule="nonzero"></path>
</svg>