<svg xmlns="http://www.w3.org/2000/svg" width="102.094" height="102.121" viewBox="0 0 102.094 102.121" fill="none">
  <path d="M 32.521 102.121 C 32.183 102.041 31.292 102.027 30.891 101.997 C 30.011 101.932 29.135 101.832 28.263 101.698 C 23.615 101.017 19.169 99.343 15.225 96.79 C 7.739 91.961 2.505 84.329 0.697 75.605 C -0.179 71.459 0.019 67.31 0.019 63.095 L 0.019 50.301 L 0.018 38.359 C 0.017 34.42 -0.134 31.053 0.567 27.142 C 1.356 22.83 2.997 18.718 5.393 15.047 C 10.224 7.66 17.794 2.498 26.434 0.698 C 30.681 -0.187 34.552 0.021 38.852 0.021 L 51.658 0.022 L 63.678 0.021 C 67.702 0.021 70.997 -0.15 75.007 0.566 C 79.411 1.377 83.602 3.077 87.327 5.563 C 94.384 10.282 99.372 17.518 101.273 25.792 C 101.528 26.909 101.722 28.039 101.854 29.177 C 101.924 29.834 101.954 30.795 102.094 31.411 L 102.094 34.304 L 41.189 34.301 L 20.795 34.301 L 14.067 34.301 C 12.801 34.301 11.438 34.277 10.177 34.317 C 10.217 37.599 11.431 40.809 13.79 43.132 C 15.318 44.654 17.291 45.649 19.422 45.975 C 20.293 46.104 21.309 46.067 22.201 46.066 L 26.03 46.065 L 39.278 46.065 L 75.358 46.065 L 87.282 46.065 C 89.185 46.065 91.289 46.011 93.167 46.064 C 93.584 47.524 93.953 48.993 94.371 50.449 C 95.234 53.456 96.188 56.438 97.232 59.387 C 97.969 61.45 98.755 63.495 99.589 65.521 C 99.959 66.413 100.342 67.299 100.735 68.181 C 101.083 68.951 101.769 70.295 101.999 71.079 C 102.068 71.312 101.881 72.74 101.836 73.106 C 101.319 77.266 100.005 81.287 97.968 84.95 C 93.732 92.594 86.659 98.265 78.276 100.737 C 76.217 101.324 74.607 101.659 72.467 101.883 C 71.929 101.942 71.388 101.989 70.847 102.023 C 70.466 102.045 69.916 102.05 69.555 102.121 L 32.521 102.121 Z M 27.923 47.855 C 27.966 51.228 29.12 54.295 31.55 56.68 C 34.201 59.283 36.645 59.591 40.112 59.591 L 43.497 59.59 L 55.395 59.589 L 81.446 59.589 C 86.178 59.589 91.015 59.641 95.74 59.573 C 94.85 56.949 94.01 54.309 93.222 51.653 C 92.978 50.82 92.742 49.985 92.514 49.148 C 92.411 48.775 92.277 48.184 92.138 47.854 L 27.923 47.855 Z M 50.159 61.38 C 50.37 65.087 51.322 67.942 54.129 70.523 C 57.243 73.388 60.132 73.099 63.974 73.095 L 72.417 73.093 L 91.304 73.093 C 94.521 73.093 97.849 73.136 101.059 73.088 L 101.304 73.077 C 101.411 72.898 100.989 72.258 100.873 72.014 C 100.376 70.971 99.892 69.922 99.421 68.868 C 98.288 66.304 97.409 63.931 96.381 61.36 C 94.098 61.337 91.816 61.331 89.534 61.342 L 77.792 61.342 L 50.652 61.345 L 50.159 61.38 Z" fill="currentColor" fill-rule="nonzero"></path>
</svg>