<svg xmlns="http://www.w3.org/2000/svg" width="66.082" height="84.567" viewBox="0 0 66.082 84.567" fill="#FF9900">
  <path d="M 19.035 8.896 C 24.682 16.017 30.821 22.402 38.187 27.804 C 41.625 30.259 45.308 32.715 49.237 34.679 C 50.956 35.661 52.675 36.643 54.394 37.134 C 56.358 38.608 56.358 36.889 54.639 32.715 C 54.394 32.96 54.148 32.96 54.148 33.206 C 52.92 33.697 51.693 35.17 50.71 35.907 C 34.504 48.675 18.052 61.444 1.846 74.212 C -0.855 76.177 -0.364 80.842 1.846 82.807 C 4.547 85.508 7.985 84.771 10.44 82.807 C 19.28 75.931 28.12 68.81 36.959 61.935 C 41.379 58.497 45.799 55.059 50.219 51.622 C 54.393 48.184 59.55 44.992 63.479 41.309 C 67.653 36.889 66.671 30.75 61.514 27.558 C 57.831 25.103 53.411 23.629 49.728 21.174 C 42.116 16.263 34.995 10.124 29.593 3.003 C 27.629 0.302 24.437 -0.926 21.245 0.793 C 18.544 2.021 16.825 6.441 19.035 8.896 Z" fill="currentColor" fill-rule="nonzero"></path>
</svg>