<svg xmlns="http://www.w3.org/2000/svg" width="131.903" height="128.739" viewBox="0 0 131.903 128.739" fill="#FF9900">
  <path d="M 12.093 125.542 C 26.025 96.099 42.324 67.971 60.463 40.894 C 64.932 34.322 69.664 27.487 74.396 21.177 C 76.236 18.812 78.076 15.657 80.705 13.817 C 82.545 12.502 83.071 13.028 84.386 14.868 C 86.489 17.497 88.066 20.389 89.643 23.281 C 91.746 26.698 93.586 30.378 95.427 34.059 C 99.107 40.894 102.261 47.992 105.153 55.352 C 111.462 71.651 116.194 88.738 119.086 105.826 C 119.612 109.243 124.081 111.346 127.235 110.295 C 130.916 109.243 132.493 105.826 131.704 102.146 C 128.813 85.321 124.344 68.759 118.035 52.723 C 114.88 44.574 111.462 36.425 107.519 28.801 C 103.839 21.703 100.158 14.08 95.427 7.77 C 90.169 0.673 82.019 -2.482 74.133 2.25 C 67.035 6.719 62.303 15.131 57.571 21.703 C 47.319 36.162 37.592 51.146 28.654 66.393 C 18.665 83.481 9.201 100.831 0.789 118.707 C -0.789 121.862 0 125.805 3.155 127.645 C 6.046 129.748 10.778 128.697 12.093 125.542 Z" fill="currentColor" fill-rule="nonzero"></path>
</svg>