<svg xmlns="http://www.w3.org/2000/svg" width="733.516" height="269.374" viewBox="0 0 733.516 269.374" fill="#FF9900">
  <path d="M 5.956 269.37 C 38.614 268.879 71.517 268.388 104.175 267.652 C 120.382 267.406 136.588 267.16 153.04 266.915 C 160.897 266.669 169 266.915 176.858 266.424 C 183.488 266.178 190.117 265.196 196.011 262.249 C 207.551 256.602 211.971 243.833 211.726 231.802 C 211.726 217.56 207.797 203.318 205.341 189.322 C 199.694 157.155 194.046 124.988 188.399 92.575 C 186.925 84.472 185.698 76.615 184.224 68.512 C 182.997 61.391 181.032 54.024 180.787 46.903 C 180.541 40.765 183.488 38.309 189.381 37.327 C 196.747 36.345 204.359 36.59 211.726 36.099 C 244.629 34.626 277.533 33.153 310.191 31.679 C 375.752 28.733 441.068 25.541 506.63 22.594 C 572.191 19.648 637.507 16.455 703.068 13.509 C 711.171 13.018 719.275 12.772 727.623 12.281 C 735.481 12.036 735.481 -0.242 727.623 0.004 C 661.816 2.95 596.255 6.142 530.448 9.089 C 464.886 12.036 399.57 15.228 334.009 18.174 C 301.351 19.648 268.693 21.121 236.035 22.594 C 227.686 23.085 219.338 23.331 210.744 23.822 C 203.377 24.067 195.52 24.067 188.153 25.05 C 181.523 25.786 175.139 27.996 171.21 33.889 C 167.527 39.537 167.773 46.658 168.755 53.288 C 173.666 85.209 179.804 116.885 185.452 148.561 C 188.399 164.767 191.1 180.973 194.046 197.179 C 195.274 204.791 196.747 212.403 197.975 220.261 C 198.957 225.908 199.448 231.556 198.712 237.204 C 198.221 241.869 196.256 246.78 192.327 249.727 C 187.416 253.41 180.787 253.655 175.139 253.901 C 159.178 254.392 143.218 254.392 127.257 254.637 C 94.845 255.129 62.187 255.62 29.774 256.111 C 21.671 256.356 13.568 256.356 5.465 256.602 C -1.901 257.339 -1.902 269.616 5.956 269.37 Z" fill="currentColor" fill-rule="nonzero"></path>
</svg>