<svg xmlns="http://www.w3.org/2000/svg" width="40.591" height="61.557" viewBox="0 0 40.591 61.557" fill="#FF9900">
  <path d="M 31.662 0.95 C 26.053 4.364 20.444 8.023 15.323 11.681 C 12.396 13.632 9.713 15.827 7.031 18.021 C 4.348 19.972 1.909 22.167 0.69 25.338 C -2.236 32.654 4.836 39.239 8.982 44.604 C 13.128 49.969 17.517 54.847 22.151 59.724 C 27.76 65.333 36.296 56.798 30.687 51.188 C 26.785 47.286 23.127 43.141 19.712 38.995 C 18.005 37.044 16.542 34.849 14.835 32.898 C 14.103 31.922 13.128 30.703 12.396 29.727 C 12.152 29.484 11.908 28.996 11.664 28.752 C 11.664 28.996 11.664 29.24 11.908 29.484 C 11.908 29.971 11.664 30.215 11.664 30.703 C 11.908 30.215 12.152 29.971 11.908 30.215 C 15.566 27.776 19.712 24.118 23.614 21.192 C 28.248 18.021 32.882 14.851 37.759 11.925 C 44.344 7.291 38.247 -3.196 31.662 0.95 Z" fill="currentColor" fill-rule="nonzero"></path>
</svg>