<svg xmlns="http://www.w3.org/2000/svg" width="236.645" height="409.160" viewBox="0 0 236.645 409.160" fill="#FF9900">
  <path d="M 9.705 409.148 C 48.969 404.27 86.038 387.931 115.79 361.836 C 146.031 335.498 167.248 299.404 176.515 260.628 C 185.051 224.778 185.538 181.125 163.346 149.665 C 152.615 134.545 137.251 123.57 119.205 118.937 C 101.889 114.547 83.111 115.522 66.284 121.619 C 30.922 134.545 7.51 168.931 1.657 205.268 C -1.27 223.803 -1.026 244.044 8.241 260.872 C 18.24 279.162 38.482 286.966 57.748 290.868 C 94.085 298.185 133.105 291.356 165.053 272.578 C 197.488 253.556 220.656 222.096 230.899 186.002 C 240.898 150.396 237.972 111.864 221.144 78.941 C 205.048 47.237 177.003 21.874 144.324 7.974 C 136.52 4.559 128.228 2.121 119.936 0.17 C 112.376 -1.538 108.962 10.168 116.766 11.876 C 148.469 18.704 177.247 37.482 197.001 63.089 C 217.486 89.672 226.997 122.595 224.071 156.006 C 221.388 189.416 206.268 221.852 181.636 244.776 C 157.005 267.7 123.35 280.626 89.696 281.357 C 72.868 281.601 55.065 279.162 39.701 272.578 C 31.653 268.92 24.337 263.798 19.704 256.238 C 15.558 249.166 13.363 241.118 12.631 232.826 C 9.705 199.903 23.606 163.81 50.188 143.812 C 75.551 124.79 113.352 122.107 139.202 141.617 C 167.004 162.59 171.881 202.342 168.467 234.533 C 164.809 271.115 149.445 306.72 125.545 334.522 C 101.889 362.08 69.942 382.078 34.824 391.833 C 26.532 394.028 17.996 395.979 9.461 396.954 C 6.29 397.442 3.364 399.393 3.364 403.051 C 3.608 405.977 6.534 409.392 9.705 409.148 Z" fill="currentColor" fill-rule="nonzero"></path>
</svg>