<svg xmlns="http://www.w3.org/2000/svg" width="339.613" height="374.851" viewBox="0 0 339.613 374.851" fill="#FF9900">
  <path d="M 1.874 332.021 C 20.802 354.103 48.668 368.299 77.059 373.031 C 90.203 375.134 103.347 375.66 116.491 373.294 C 128.847 371.191 141.202 365.67 152.243 359.624 C 157.501 356.732 162.496 353.315 167.228 349.897 C 173.274 345.428 179.32 340.959 184.841 335.965 C 195.356 326.238 202.191 312.831 206.66 299.424 C 211.392 285.228 213.495 270.244 214.284 255.522 C 215.072 239.224 214.547 222.136 211.392 206.1 C 207.975 189.539 199.825 173.766 185.367 164.302 C 172.748 156.153 156.975 155.101 143.831 162.725 C 132.001 169.56 123.589 181.915 119.909 194.796 C 115.966 208.992 118.332 223.713 125.429 236.595 C 140.414 263.672 172.748 279.708 202.191 284.702 C 217.438 287.331 233.737 287.331 248.722 282.599 C 264.757 277.342 277.639 266.826 286.84 252.631 C 296.566 237.383 302.613 219.77 308.396 202.946 C 314.705 184.807 320.226 166.405 324.432 147.74 C 333.107 110.674 338.102 72.556 339.416 34.438 C 339.679 24.974 339.679 15.773 339.416 6.309 C 339.153 -2.103 326.009 -2.103 326.272 6.309 C 327.849 77.288 315.494 148.266 290.257 214.512 C 284.737 228.971 278.69 244.481 267.912 255.785 C 258.448 265.775 245.567 271.295 232.16 272.873 C 217.964 274.45 203.506 272.61 190.099 268.404 C 177.217 264.46 164.336 258.414 153.821 249.739 C 143.568 241.327 135.156 230.548 132.001 217.404 C 129.373 206.626 132.527 194.534 138.574 185.07 C 144.62 176.132 153.821 169.822 164.336 170.348 C 177.48 171.137 187.733 181.915 193.253 193.219 C 200.351 207.678 200.614 225.291 201.14 241.064 C 201.403 253.945 200.351 267.089 197.985 279.97 C 195.356 292.589 191.413 305.207 184.315 316.248 C 177.48 326.764 166.702 334.124 156.712 341.485 C 147.249 348.32 136.733 353.315 125.692 357.258 C 115.44 361.201 105.713 361.99 94.672 361.727 C 70.224 360.938 44.724 352 25.271 336.49 C 20.013 332.284 15.544 327.815 11.075 322.82 C 8.709 320.192 4.24 320.454 1.874 322.82 C -0.754 325.449 -0.492 329.392 1.874 332.021 Z" fill="currentColor" fill-rule="nonzero"></path>
</svg>