<svg xmlns="http://www.w3.org/2000/svg" width="673.496" height="54.937" viewBox="0 0 673.496 54.937" fill="#FF9900">
  <path d="M 17.033 45.119 C 16.706 34.662 22.588 25.186 31.411 20.285 C 42.847 13.749 57.225 18.324 68.335 23.226 C 81.405 28.781 93.822 35.642 107.546 38.257 C 121.597 40.871 134.667 38.91 146.104 30.414 C 150.025 27.473 153.946 23.879 158.847 23.552 C 159.174 23.552 160.808 23.879 161.461 24.206 C 163.749 25.513 163.749 25.513 165.709 27.147 C 172.245 33.028 176.819 40.871 183.681 46.426 C 192.504 53.614 203.287 55.575 214.07 50.673 C 223.546 46.426 230.081 37.603 238.904 32.702 C 246.419 28.454 253.608 30.088 261.124 33.682 C 270.273 37.93 278.442 43.812 287.591 48.386 C 297.394 52.961 307.524 55.902 318.307 53.288 C 324.188 51.981 329.743 48.713 334.971 45.119 C 339.546 42.178 344.121 38.583 349.349 37.276 C 358.172 34.989 366.994 42.178 374.51 47.079 C 383.986 52.961 395.096 57.209 406.205 53.614 C 416.988 50.02 423.197 40.544 432.673 34.662 C 442.476 28.454 453.586 33.682 463.715 36.623 C 469.924 38.583 476.459 40.217 482.994 40.217 C 489.856 40.217 496.391 37.93 502.927 35.316 C 509.462 32.702 515.997 30.088 522.859 29.107 C 530.375 28.127 537.89 28.454 545.406 28.454 C 577.755 28.127 610.104 27.8 642.127 27.473 C 649.969 27.473 657.811 27.147 665.654 27.147 C 676.11 27.147 676.11 10.809 665.654 10.809 C 632.977 11.135 599.975 11.462 567.299 11.789 C 551.614 12.116 535.276 11.135 519.591 13.096 C 512.076 14.076 505.214 16.69 498.352 19.631 C 492.47 22.245 486.589 24.206 480.053 23.552 C 467.31 22.245 456.2 15.057 443.129 15.057 C 430.059 15.057 420.91 22.572 411.434 31.068 C 408.166 34.009 404.245 37.276 399.997 38.257 C 396.076 39.237 392.481 37.93 388.887 36.296 C 379.084 31.395 370.915 23.879 360.132 21.592 C 346.735 18.651 336.279 25.186 325.495 32.048 C 323.208 33.355 320.921 34.989 318.307 35.969 C 316.346 36.95 313.405 37.603 312.098 37.603 C 307.524 37.93 304.256 37.276 299.355 35.316 C 280.729 28.454 264.391 10.809 242.171 14.076 C 230.735 15.71 222.566 23.879 214.07 30.741 C 210.802 33.355 207.208 36.296 202.96 36.623 C 201.653 36.95 200.346 36.623 198.712 36.296 C 197.732 35.969 196.098 35.316 194.464 34.009 C 195.118 34.662 193.157 32.702 192.83 32.375 C 192.177 31.721 191.197 31.068 190.543 30.088 C 188.909 28.454 187.602 26.82 185.969 24.859 C 183.028 21.592 180.414 17.997 177.146 14.73 C 168.65 6.561 157.54 3.947 146.757 9.175 C 141.202 11.789 136.954 16.364 131.399 19.304 C 126.171 22.245 119.963 22.572 114.081 21.919 C 100.357 20.285 87.94 13.096 75.523 7.868 C 61.799 1.986 46.442 -2.589 31.411 1.659 C 19.32 4.927 8.864 14.076 3.963 25.513 C 1.349 31.395 -0.285 37.603 0.041 44.138 C 0.695 55.575 17.033 55.575 17.033 45.119 Z" fill="currentColor" fill-rule="nonzero"></path>
</svg>