<svg xmlns="http://www.w3.org/2000/svg" width="440.816" height="128.894" viewBox="0 0 440.816 128.894" fill="#FF9900">
  <path d="M 376.635 22.579 C 380.897 23.869 384.626 24.998 388.355 26.127 C 403.804 30.965 417.921 37.094 428.576 45.642 C 443.225 57.092 444.824 69.995 432.837 82.736 C 426.711 89.348 418.187 94.509 408.332 99.025 C 388.887 107.734 367.046 113.218 344.139 117.573 C 310.577 123.862 276.216 127.249 241.323 128.378 C 203.499 129.669 165.942 128.54 128.385 124.991 C 101.216 122.572 74.313 118.701 49.009 111.605 C 39.153 108.863 29.298 105.315 20.774 101.122 C -1.334 89.994 -6.128 72.737 7.989 57.415 C 14.914 49.835 24.77 43.545 35.691 38.061 C 61.794 24.998 91.893 16.772 123.857 10.805 C 167.806 2.58 212.555 -0.807 258.37 0.161 C 288.735 0.806 319.1 2.58 348.4 7.741 C 357.19 9.192 365.448 11.45 373.971 13.386 C 376.102 13.869 377.967 14.676 379.831 15.482 C 384.626 17.74 384.359 19.676 379.032 21.772 C 378.499 22.095 377.7 22.256 376.635 22.579 Z M 246.117 8.225 C 246.117 8.063 246.117 7.902 246.117 7.741 C 244.519 7.741 242.654 7.58 241.056 7.58 C 204.032 7.741 167.54 10.966 131.847 17.418 C 100.949 22.901 71.383 30.643 46.079 43.061 C 35.957 48.061 26.634 53.544 19.975 60.479 C 7.722 73.382 11.718 87.413 30.896 96.445 C 38.088 99.832 46.079 102.573 54.336 104.831 C 76.71 111.121 100.417 114.508 124.389 117.089 C 159.016 120.798 193.91 121.766 228.803 121.282 C 269.823 120.637 310.31 116.766 349.199 108.702 C 367.578 104.831 385.158 100.154 400.874 93.219 C 410.463 88.865 418.72 83.704 424.047 77.091 C 429.907 69.672 430.44 62.092 423.515 54.835 C 420.851 52.093 417.388 49.351 413.926 47.093 C 402.472 39.674 388.621 34.513 373.172 30.481 C 353.994 25.482 334.283 21.772 313.773 19.353 C 286.604 15.966 259.169 14.353 231.733 17.74 C 230.402 17.901 228.537 18.224 227.472 17.901 C 225.607 17.256 223.21 16.45 222.677 15.482 C 222.144 14.515 223.743 12.902 225.074 12.095 C 226.673 11.289 229.07 10.966 231.201 10.644 C 236.262 9.515 241.056 8.87 246.117 8.225 Z M 331.353 13.386 C 344.405 15.966 357.19 18.385 370.242 20.966 C 358.256 16.289 345.204 14.353 331.353 13.386 Z" fill="#FF9900" fill-rule="nonzero"></path>
</svg>